<svg width="2001" height="1125" viewBox="0 0 2001 1125" fill="none" xmlns="http://www.w3.org/2000/svg">
<path d="M663.5 260.616L233 697.116C232.667 801.283 232.2 1019.32 233 1058.12C233.8 1096.92 201.333 1112.95 185 1116.12C158.167 1116.45 95.2 1116.92 58 1116.12C20.8 1115.32 9.16667 1077.12 8 1058.12V568.616L370.5 207.116M663.5 260.616C614 219.616 486.1 151.516 370.5 207.116M663.5 260.616C673 264.116 703.3 283.116 748.5 331.116C793.7 379.116 893.333 449.45 937.5 478.616C1047.5 519.416 1133 461.616 1162 427.616L738.5 34.6162C712.667 16.4496 639.9 -10.5838 555.5 26.6162L370.5 207.116" stroke="url(#paint0_linear)" stroke-width="15"/>
<path d="M1802.5 597.616H1682V982.616C1682 1068.62 1742 1098.45 1772 1102.62H1881.5V982.616H1817C1803.4 982.616 1801.67 971.616 1802.5 966.116V795.616H1881.5L1984 677.116H1802.5V597.616Z" stroke="#F6F3F7" stroke-width="15"/>
<path d="M553.5 613.116H443V909.616C445.667 951.95 470.4 1047.12 548 1089.12C645 1141.62 743.5 1103.12 781 1076.12C818.5 1049.12 872 992.116 872 886.116C872 780.116 790.5 726.616 759 707.616C733.8 692.416 679.167 686.95 655 686.116L579 797.116H645.5C661 796.283 698.6 798.916 725 816.116C758 837.616 756.5 884.616 759 909.616C761.5 934.616 744 966.116 711 992.116C678 1018.12 634 1004.62 595.5 986.616C564.7 972.216 554.667 937.616 553.5 922.116V613.116Z" stroke="#F6F3F7" stroke-width="15"/>
<path d="M629 686.116L574.5 762.5V686.116H629Z" stroke="#F6F3F7" stroke-width="15"/>
<path d="M1194.5 836.116H1050.5L1107.5 945.116H1316.5C1323.5 923.45 1326.5 858.616 1282.5 772.616C1238.5 686.616 1124.17 676.45 1072.5 682.116C1012.67 690.616 893.5 744.216 895.5 890.616C897.5 1037.02 1013.33 1092.62 1071 1102.12H1167L1269 997.116H1093.5C1072 991.783 1027.3 965.3 1014.5 940.5C1001.7 915.7 1001 855.5 1014.5 832C1027 813 1059.5 783.516 1107.5 783.116C1155.5 782.716 1185.5 818.283 1194.5 836.116Z" stroke="#F6F3F7" stroke-width="15"/>
<path d="M1451.5 677.116H1628.5V783.116H1475.5C1459.9 816.316 1510 839.283 1537 846.616C1576.33 863.116 1654.2 915.316 1651 992.116C1647.8 1068.92 1573.67 1102.12 1537 1109.12H1344V997.116L1513 992.116C1524 981.95 1527.1 953.216 1451.5 919.616C1357 877.616 1353.5 854.616 1352 772.616C1350.8 707.016 1417.83 681.616 1451.5 677.116Z" stroke="#F6F3F7" stroke-width="15"/>
<defs>
<linearGradient id="paint0_linear" x1="1071" y1="103.5" x2="7.99999" y2="1117" gradientUnits="userSpaceOnUse">
<stop stop-color="#2744A9"/>
<stop offset="1" stop-color="#7EE3E3"/>
</linearGradient>
</defs>
</svg>
