<svg width="91" height="51" viewBox="0 0 91 51" fill="none" xmlns="http://www.w3.org/2000/svg">
<path d="M0 48.3113V25.7915L16.6771 9.16048L25.1881 0.856453C29.071 -0.854959 32.4187 0.388728 33.6072 1.2245L53.0906 19.3047C51.7564 20.8689 47.8229 23.5281 42.7623 21.651C40.7304 20.3092 36.1467 17.0735 34.0672 14.8652C31.9878 12.6569 30.5938 11.7828 30.1567 11.6218L10.3513 31.7033C10.3359 36.4955 10.3145 46.5263 10.3513 48.3113C10.3881 50.0964 8.89444 50.834 8.14301 50.9797C6.90852 50.995 4.0117 51.0165 2.30029 50.9797C0.588873 50.9429 0.0536733 49.1855 0 48.3113Z" fill="url(#paint0_linear)"/>
<path d="M82.5573 27.1255H77.0137V44.8377C77.0137 48.7942 79.774 50.1667 81.1542 50.3584H86.1918V44.8377H83.2244C82.5987 44.8377 82.519 44.3316 82.5573 44.0786V36.2346H86.1918L90.9074 30.7829H82.5573V27.1255Z" fill="url(#paint1_linear)"/>
<path d="M25.0962 27.8386H20.0126V41.4793C20.1353 43.4268 21.2731 47.8051 24.8432 49.7373C29.3057 52.1526 33.8373 50.3814 35.5625 49.1392C37.2877 47.8971 39.749 45.2747 39.749 40.3981C39.749 35.5215 35.9996 33.0602 34.5504 32.1861C33.391 31.4868 30.8776 31.2353 29.7658 31.197L26.2694 36.3036H29.3287C30.0418 36.2653 31.7716 36.3864 32.9862 37.1777C34.5044 38.1669 34.4354 40.3291 34.5504 41.4793C34.6654 42.6294 33.8603 44.0786 32.3421 45.2747C30.8239 46.4709 28.7997 45.8498 27.0284 45.0217C25.6115 44.3592 25.1499 42.7674 25.0962 42.0543V27.8386Z" fill="url(#paint2_linear)"/>
<path d="M54.5859 38.0979H47.961L50.5834 43.1125H60.1986C60.5206 42.1157 60.6586 39.133 58.6344 35.1765C56.6101 31.22 51.3501 30.7523 48.9732 31.013C46.2205 31.404 40.7381 33.8699 40.8302 40.6052C40.9222 47.3404 46.2512 49.8983 48.9042 50.3354H53.3207L58.0133 45.5048H49.9393C48.9502 45.2594 46.8937 44.041 46.3048 42.9001C45.716 41.7592 45.6838 38.9896 46.3048 37.9085C46.8799 37.0344 48.3751 35.678 50.5834 35.6595C52.7916 35.6411 54.1718 37.2774 54.5859 38.0979Z" fill="url(#paint3_linear)"/>
<path d="M66.4093 30.7829H74.5523V35.6595H67.5135C66.7958 37.1869 69.1007 38.2435 70.3428 38.5809C72.1524 39.34 75.7347 41.7415 75.5875 45.2747C75.4403 48.808 72.0297 50.3354 70.3428 50.6574H61.4637V45.5048L69.2387 45.2747C69.7447 44.807 69.8874 43.4851 66.4093 41.9393C62.0618 40.0071 61.9008 38.949 61.8318 35.1765C61.7766 32.1585 64.8605 30.99 66.4093 30.7829Z" fill="url(#paint4_linear)"/>
<defs>
<linearGradient id="paint0_linear" x1="-6.92223e-07" y1="51" x2="53" y2="-1.95017e-06" gradientUnits="userSpaceOnUse">
<stop stop-color="#7EE2E3"/>
<stop offset="1" stop-color="#345BB2"/>
</linearGradient>
<linearGradient id="paint1_linear" x1="20" y1="51" x2="91" y2="27" gradientUnits="userSpaceOnUse">
<stop stop-color="#355EB3"/>
<stop offset="1" stop-color="#75D2DD"/>
</linearGradient>
<linearGradient id="paint2_linear" x1="20" y1="51" x2="91" y2="27" gradientUnits="userSpaceOnUse">
<stop stop-color="#355EB3"/>
<stop offset="1" stop-color="#75D2DD"/>
</linearGradient>
<linearGradient id="paint3_linear" x1="20" y1="51" x2="91" y2="27" gradientUnits="userSpaceOnUse">
<stop stop-color="#355EB3"/>
<stop offset="1" stop-color="#75D2DD"/>
</linearGradient>
<linearGradient id="paint4_linear" x1="20" y1="51" x2="91" y2="27" gradientUnits="userSpaceOnUse">
<stop stop-color="#355EB3"/>
<stop offset="1" stop-color="#75D2DD"/>
</linearGradient>
</defs>
</svg>
